#!OML:ASF F:\VICON\USERDATA\INSTALL\rory3\rory3.ASF
:FULLY-SPECIFIED
:DEGREES
352
root -0.0269445 17.4055 8.93075 -8.72198 -9.11207 4.81306
lowerback 10.8503 0.200233 -2.53844
upperback 3.72123 -0.0583857 -1.50886
thorax -2.2032 -0.036421 -0.127398
lowerneck -9.27873 -5.07497 -8.79893
upperneck 8.5727 -6.48344 7.933
head 4.63245 -3.04002 3.42718
rclavicle -8.09426e-015 9.74045e-015
rhumerus -26.0151 -4.79509 -80.7784
rradius 18.1573
rwrist 17.5827
rhand -24.2686 -1.92136
rfingers 7.12502
rthumb 2.21796 -31.8896
lclavicle -8.09426e-015 9.74045e-015
lhumerus -30.7544 19.2166 74.2246
lradius 19.0634
lwrist -5.96979
lhand -23.1745 25.5453
lfingers 7.12502
lthumb 3.27456 55.4999
rfemur -18.8484 11.0055 18.0348
rtibia 54.3167
rfoot -26.5546 -9.83492
rtoes -0.547264
lfemur -14.4618 0.357465 -20.6914
ltibia 50.6071
lfoot -24.1603 11.2768
ltoes -4.12596
353
root -0.0255809 17.4681 8.97015 -8.45904 -9.22757 4.7295
lowerback 10.6412 0.162961 -2.45585
upperback 3.59368 -0.0936261 -1.48675
thorax -2.22095 -0.0527297 -0.146283
lowerneck -9.24349 -5.1853 -8.80287
upperneck 8.57528 -6.63406 7.92244
head 4.64007 -3.11542 3.4128
rclavicle 8.25578e-015 9.93923e-015
rhumerus -25.9178 -4.86173 -80.6379
rradius 18.2881
rwrist 17.6377
rhand -24.4574 -1.72382
rfingers 7.12502
rthumb 2.03563 -31.6939
lclavicle 8.25578e-015 9.93923e-015
lhumerus -30.8565 19.4183 74.2258
lradius 18.9682
lwrist -6.17219
lhand -23.1009 25.4643
lfingers 7.12502
lthumb 3.34564 55.4178
rfemur -18.4553 11.3107 18.1246
rtibia 53.3732
rfoot -26.1621 -9.97541
rtoes -0.371964
lfemur -14.0478 0.290193 -20.6477
ltibia 49.6061
lfoot -23.8533 11.4023
ltoes -4.08491
354
root -0.023616 17.5309 9.01673 -8.26972 -9.3655 4.69669
lowerback 10.3838 0.137639 -2.4088
upperback 3.51115 -0.113985 -1.4592
thorax -2.16537 -0.0627286 -0.141449
lowerneck -9.2801 -5.30434 -8.93269
upperneck 8.67255 -6.78952 8.00748
head 4.69684 -3.19015 3.44621
rclavicle -3.33523e-014 -6.95746e-015
rhumerus -25.8622 -4.53533 -80.6156
rradius 18.225
rwrist 16.3792
rhand -23.8951 -0.935156
rfingers 7.12502
rthumb 2.5787 -30.8993
lclavicle -3.33523e-014 -6.95746e-015
lhumerus -30.8754 19.5564 74.311
lradius 18.7541
lwrist -6.2108
lhand -23.1269 25.1003
lfingers 7.12502
lthumb 3.32058 55.0542
rfemur -17.9377 11.5532 18.1582
rtibia 52.4129
rfoot -25.8146 -10.0282
rtoes -0.0914013
lfemur -13.4851 0.260367 -20.6597
ltibia 48.563
lfoot -23.7093 11.4911
ltoes -4.01428
355
root -0.0234969 17.5929 9.06376 -8.02198 -9.47243 4.61655
lowerback 10.0637 0.0882372 -2.33804
upperback 3.39657 -0.162039 -1.41065
thorax -2.108 -0.0862944 -0.125098
lowerneck -9.3799 -5.39326 -9.08151
upperneck 8.93613 -6.90249 8.06507
head 4.81151 -3.24439 3.47539
rclavicle -3.81791e-014 -2.20651e-014
rhumerus -25.8825 -4.28128 -80.5304
rradius 18.2878
rwrist 15.6419
rhand -24.9697 -0.0298636
rfingers 7.12502
rthumb 1.54088 -30.004
lclavicle -3.81791e-014 -2.20651e-014
lhumerus -31.0096 19.5763 74.4129
lradius 18.6934
lwrist -6.09669
lhand -23.0316 25.1787
lfingers 7.12502
lthumb 3.4126 55.1311
rfemur -17.4794 11.7929 18.2382
rtibia 51.4231
rfoot -25.5154 -10.1544
rtoes -0.227367
lfemur -12.9512 0.170446 -20.621
ltibia 47.457
lfoot -23.589 11.5942
ltoes -4.01706
356
root -0.0237059 17.6548 9.10477 -7.75414 -9.52323 4.65001
lowerback 9.83547 0.0454731 -2.37842
upperback 3.1929 -0.218975 -1.40953
thorax -2.19271 -0.112581 -0.0947131
lowerneck -9.36478 -5.48632 -9.17443
upperneck 9.17503 -7.0299 8.06029
head 4.89677 -3.31019 3.47724
rclavicle -1.37099e-014 -9.44227e-015
rhumerus -25.988 -4.22222 -80.3977
rradius 18.4711
rwrist 15.6087
rhand -23.2885 -2.24957
rfingers 7.12502
rthumb 3.16453 -32.2058
lclavicle -1.37099e-014 -9.44227e-015
lhumerus -31.2807 19.5597 74.438
lradius 18.7204
lwrist -6.14841
lhand -22.7437 25.9508
lfingers 7.12502
lthumb 3.69058 55.8986
rfemur -17.1071 12.0004 18.1732
rtibia 50.4204
rfoot -25.2269 -10.3125
rtoes -0.362469
lfemur -12.4855 0.047224 -20.7051
ltibia 46.3198
lfoot -23.2933 11.7331
ltoes -3.90607
357
root -0.0225012 17.7233 9.15151 -7.60167 -9.62765 4.77447
lowerback 9.65185 0.0254653 -2.50091
upperback 3.05589 -0.254306 -1.43111
thorax -2.23251 -0.128921 -0.0443273
lowerneck -9.50463 -5.56774 -9.11896
upperneck 9.43219 -7.12789 7.87284
head 4.99903 -3.36343 3.39659
rclavicle 3.74585e-015 -3.97569e-016
rhumerus -25.9344 -4.31873 -80.2414
rradius 18.4721
rwrist 15.7562
rhand -24.0361 -1.4487
rfingers 7.12502
rthumb 2.44247 -31.4145
lclavicle 3.74585e-015 -3.97569e-016
lhumerus -31.5195 19.6934 74.4409
lradius 18.7124
lwrist -6.2626
lhand -22.5733 25.8421
lfingers 7.12502
lthumb 3.85513 55.787
rfemur -16.5742 12.2275 18.0171
rtibia 49.3921
rfoot -24.9339 -10.3346
rtoes -0.126573
lfemur -11.865 0.00852618 -20.8912
ltibia 45.191
lfoot -22.9488 11.8379
ltoes -3.75578
358
root -0.0225198 17.7808 9.19818 -7.40031 -9.81187 4.73026
lowerback 9.41807 -0.00450234 -2.50941
upperback 2.92848 -0.28751 -1.37479
thorax -2.23479 -0.144614 0.0221544
lowerneck -9.43214 -5.58722 -9.18273
upperneck 9.46132 -7.14871 7.83711
head 4.99867 -3.37966 3.39528
rclavicle -2.65191e-014 3.08116e-015
rhumerus -25.8668 -4.42532 -80.029
rradius 18.498
rwrist 16.4266
rhand -24.1042 -0.835761
rfingers 7.12502
rthumb 2.37674 -30.8023
lclavicle -2.65191e-014 3.08116e-015
lhumerus -31.7474 19.9243 74.4364
lradius 18.58
lwrist -6.27449
lhand -22.5418 25.482
lfingers 7.12502
lthumb 3.88558 55.4263
rfemur -16.1 12.5321 18.0637
rtibia 48.3963
rfoot -24.5917 -10.427
rtoes 0.170051
lfemur -11.2972 0.013458 -20.8746
ltibia 44.128
lfoot -22.7107 11.8902
ltoes -3.62243
359
root -0.0225543 17.8339 9.23551 -7.04532 -9.92766 4.55783
lowerback 9.16778 -0.0456475 -2.39164
upperback 2.73824 -0.324146 -1.29704
thorax -2.29337 -0.16105 0.0400976
lowerneck -9.16775 -5.63025 -9.25063
upperneck 9.31854 -7.21586 7.86376
head 4.91979 -3.41969 3.41546
rclavicle 1.35671e-014 -9.54166e-015
rhumerus -25.8517 -4.53754 -79.8237
rradius 18.5852
rwrist 17.0824
rhand -22.8735 -4.0708
rfingers 7.12502
rthumb 3.56527 -34.0207
lclavicle 1.35671e-014 -9.54166e-015
lhumerus -31.9287 20.0103 74.4766
lradius 18.4411
lwrist -6.32836
lhand -22.3325 25.8575
lfingers 7.12502
lthumb 4.08769 55.798
rfemur -15.8119 12.7937 18.2093
rtibia 47.4008
rfoot -24.1949 -10.4911
rtoes 0.932541
lfemur -10.9716 0.028128 -20.7053
ltibia 43.1199
lfoot -22.3452 11.9905
ltoes -4.32999
360
root -0.0198725 17.8858 9.27249 -6.76291 -10.0044 4.5015
lowerback 8.99858 -0.0664584 -2.29478
upperback 2.56426 -0.341199 -1.3081
thorax -2.38043 -0.167684 -0.0240885
lowerneck -9.21785 -5.73253 -9.20426
upperneck 9.46476 -7.36002 7.82334
head 4.9826 -3.48964 3.38087
rclavicle 8.75274e-015 2.78299e-015
rhumerus -25.8869 -4.43195 -79.7842
rradius 18.5406
rwrist 16.5942
rhand -23.885 -0.41009
rfingers 7.12502
rthumb 2.58843 -30.3741
lclavicle 8.75274e-015 2.78299e-015
lhumerus -32.1005 20.0768 74.4517
lradius 18.4092
lwrist -6.59046
lhand -21.797 25.8598
lfingers 7.12502
lthumb 4.60479 55.7897
rfemur -15.4866 12.9869 18.23
rtibia 46.4197
rfoot -23.7278 -10.6751
rtoes 1.10668
lfemur -10.6355 0.0755248 -20.6764
ltibia 42.165
lfoot -21.9392 12.1022
ltoes -4.58623
361
root -0.0170478 17.9391 9.31595 -6.52088 -10.1412 4.38703
lowerback 8.80449 -0.0818257 -2.10285
upperback 2.4114 -0.341564 -1.31849
thorax -2.43264 -0.16694 -0.142893
lowerneck -9.40848 -5.85308 -9.17466
upperneck 9.78252 -7.52603 7.79688
head 5.12498 -3.56646 3.34685
rclavicle 1.25483e-014 1.27222e-014
rhumerus -25.9221 -4.31048 -79.7865
rradius 18.4296
rwrist 16.0282
rhand -23.9568 -1.05314
rfingers 7.12502
rthumb 2.51909 -31.018
lclavicle 1.25483e-014 1.27222e-014
lhumerus -32.3056 20.1599 74.3691
lradius 18.4337
lwrist -6.79394
lhand -21.4344 25.7645
lfingers 7.12502
lthumb 4.95492 55.6865
rfemur -15.0878 13.1628 18.3371
rtibia 45.4333
rfoot -23.2941 -10.8935
rtoes 0.668369
lfemur -10.2151 0.203888 -20.5785
ltibia 41.2138
lfoot -21.5399 12.225
ltoes -4.84587
362
root -0.0156157 17.9911 9.36023 -6.27732 -10.3001 4.21988
lowerback 8.58807 -0.0848408 -1.89862
upperback 2.27674 -0.322357 -1.27631
thorax -2.45336 -0.157095 -0.21644
lowerneck -9.57472 -5.98372 -9.18945
upperneck 10.0046 -7.68872 7.7129
head 5.23304 -3.64732 3.3027
rclavicle -4.03843e-014 -1.21259e-014
rhumerus -25.9238 -4.36685 -79.6703
rradius 18.3927
rwrist 16.1575
rhand -25.2735 0.885515
rfingers 7.12502
rthumb 1.24745 -29.0906
lclavicle -4.03843e-014 -1.21259e-014
lhumerus -32.4596 20.2976 74.3622
lradius 18.3836
lwrist -6.95747
lhand -21.4619 26.0835
lfingers 7.12502
lthumb 4.92838 56.0062
rfemur -14.6784 13.3825 18.51
rtibia 44.4682
rfoot -22.9391 -11.0535
rtoes 0.553332
lfemur -9.77912 0.338947 -20.413
ltibia 40.2446
lfoot -21.1504 12.4037
ltoes -5.72324
363
root -0.0129795 18.0388 9.40177 -6.02899 -10.3505 4.19965
lowerback 8.4147 -0.108782 -1.8384
upperback 2.09206 -0.347703 -1.28623
thorax -2.54844 -0.168382 -0.258111
lowerneck -9.47277 -6.07387 -9.25658
upperneck 10.0033 -7.81481 7.74699
head 5.23057 -3.71177 3.31518
rclavicle 1.73626e-014 -7.35503e-015
rhumerus -25.9692 -4.32605 -79.5951
rradius 18.4263
rwrist 16.2228
rhand -24.4601 -1.14498
rfingers 7.12502
rthumb 2.03299 -31.115
lclavicle 1.73626e-014 -7.35503e-015
lhumerus -32.6922 20.6979 74.1662
lradius 18.2116
lwrist -7.35947
lhand -21.7001 25.5091
lfingers 7.12502
lthumb 4.69839 55.437
rfemur -14.3088 13.4962 18.4782
rtibia 43.5422
rfoot -22.6849 -11.095
rtoes 0.592981
lfemur -9.39277 0.365365 -20.4283
ltibia 39.2806
lfoot -20.7815 12.5201
ltoes -6.00244
364
root -0.0112849 18.0829 9.43902 -5.78446 -10.3542 4.21384
lowerback 8.30686 -0.154645 -1.87224
upperback 1.89955 -0.412542 -1.29945
thorax -2.68694 -0.198626 -0.246121
lowerneck -9.40439 -6.14498 -9.24116
upperneck 10.0355 -7.91672 7.70893
head 5.23574 -3.76487 3.29297
rclavicle -2.81094e-014 4.17448e-015
rhumerus -25.9915 -4.3932 -79.511
rradius 18.435
rwrist 16.2873
rhand -23.5357 -1.82229
rfingers 7.12502
rthumb 2.92572 -31.782
lclavicle -2.81094e-014 4.17448e-015
lhumerus -32.9423 20.957 74.0027
lradius 18.1501
lwrist -7.70671
lhand -21.8889 25.0165
lfingers 7.12502
lthumb 4.51609 54.9483
rfemur -13.9657 13.6283 18.4152
rtibia 42.6683
rfoot -22.4325 -11.1815
rtoes 0.900022
lfemur -9.01796 0.402023 -20.469
ltibia 38.3071
lfoot -20.4297 12.5606
ltoes -6.20484
365
root -0.00912029 18.1252 9.47727 -5.50875 -10.3938 4.13039
lowerback 8.05989 -0.196235 -1.79526
upperback 1.785 -0.455922 -1.28609
thorax -2.66829 -0.220193 -0.271836
lowerneck -9.40497 -6.18598 -9.15215
upperneck 10.0265 -7.97379 7.624
head 5.23085 -3.79457 3.24688
rclavicle 3.81294e-014 2.03754e-014
rhumerus -26.0701 -4.46908 -79.4347
rradius 18.5721
rwrist 16.4365
rhand -24.4714 -1.95798
rfingers 7.12502
rthumb 2.02212 -31.9281
lclavicle 3.81294e-014 2.03754e-014
lhumerus -33.0735 20.8167 74.0806
lradius 18.2563
lwrist -7.69073
lhand -21.9207 25.0421
lfingers 7.12502
lthumb 4.48534 54.9746
rfemur -13.6854 13.769 18.4644
rtibia 41.8582
rfoot -22.1668 -11.3867
rtoes 0.614181
lfemur -8.65462 0.514236 -20.3877
ltibia 37.3031
lfoot -20.0281 12.5773
ltoes -6.78729
366
root -0.00500353 18.1678 9.52137 -5.31392 -10.4195 4.16181
lowerback 7.77028 -0.220915 -1.79625
upperback 1.70144 -0.482103 -1.2845
thorax -2.5934 -0.233258 -0.268121
lowerneck -9.31603 -6.21042 -9.28765
upperneck 9.98917 -8.00999 7.75312
head 5.21846 -3.81168 3.30832
rclavicle -1.37534e-014 -1.38155e-014
rhumerus -26.1965 -4.55793 -79.2769
rradius 18.6766
rwrist 16.6913
rhand -24.7393 -1.57856
rfingers 7.12502
rthumb 1.76332 -31.551
lclavicle -1.37534e-014 -1.38155e-014
lhumerus -33.1695 20.8508 74.1373
lradius 18.2004
lwrist -7.77719
lhand -21.8512 25.3001
lfingers 7.12502
lthumb 4.55246 55.2311
rfemur -13.3621 13.8249 18.3761
rtibia 41.1038
rfoot -21.9198 -11.5176
rtoes 0.138012
lfemur -8.18507 0.46602 -20.4783
ltibia 36.265
lfoot -19.6998 12.7485
ltoes -7.24221
